<svg width="108" height="67" viewBox="0 0 108 67" fill="none" xmlns="http://www.w3.org/2000/svg">
<path d="M106.212 50.7511V49.9178H105.379H98.3186V3.39111V2.55778H97.4853H84.2586H83.484L83.4275 3.3303C83.2218 6.14155 82.4753 8.13973 81.294 9.44535L81.2865 9.45363L81.2792 9.46212C80.0881 10.8518 78.7186 11.7905 77.1684 12.3072C75.538 12.8507 74.0344 13.1152 72.6525 13.1178C71.2326 13.0462 70.3716 12.9415 69.9809 12.8298L68.9186 12.5263V13.6311V30.1644V30.9978H69.752C70.1368 30.9978 70.945 30.9604 72.1476 30.8897C73.4641 30.8122 74.8664 30.4662 76.3485 29.874C78.0014 29.2428 79.4643 28.1119 80.745 26.5304C81.1467 26.0392 81.5063 25.4926 81.8253 24.8927V49.9178H72.5253H71.692V50.7511V63.4444V64.2778H72.5253H105.379H106.212V63.4444V50.7511Z" stroke="white" stroke-width="1.66667"/>
<path d="M8.42593 57.032L8.42915 57.0359C13.1808 62.9013 20.3502 65.7714 29.77 65.7714C36.1419 65.7714 41.4674 64.4316 45.6904 61.6904C49.891 58.9637 53.0182 55.1676 55.0705 50.3302L55.0722 50.326C57.1134 45.4418 58.1233 39.8536 58.1233 33.578C58.1233 23.9232 55.8532 16.1476 51.2231 10.3405C46.5404 4.39555 39.3288 1.49137 29.77 1.49137C23.3291 1.49137 17.9356 2.83022 13.6434 5.56781C9.43616 8.22548 6.34095 11.9914 4.35954 16.8338C2.38851 21.5799 1.41667 27.1683 1.41667 33.578C1.41667 43.3068 3.72371 51.1542 8.42593 57.032ZM39.4427 47.5946L39.4407 47.5974C37.4338 50.3811 34.2386 51.838 29.6633 51.838C25.0981 51.838 21.905 50.3526 19.8949 47.5033C17.9041 44.5797 16.8433 39.9836 16.8433 33.578C16.8433 26.8709 17.9459 22.2667 19.9807 19.5749C22.0621 16.844 25.2352 15.4247 29.6633 15.4247C34.3149 15.4247 37.5429 16.885 39.5474 19.6654C41.5984 22.5103 42.6967 27.0962 42.6967 33.578C42.6967 40.0538 41.5648 44.6767 39.4427 47.5946Z" stroke="white" stroke-width="1.66667"/>
</svg>
