<svg width="119" height="67" viewBox="0 0 119 67" fill="none" xmlns="http://www.w3.org/2000/svg">
<path d="M67.3561 63.0004V63.8337H68.1895H116.936H117.769V63.0004V50.307V49.4737H116.936H89.1691C91.6398 48.6841 94.3327 47.5745 97.2456 46.1506C100.584 44.5534 103.806 42.4522 106.911 39.8527C110.063 37.214 112.587 33.9552 114.484 30.0874C116.385 26.2126 117.181 22.4992 116.805 18.9662C116.433 15.4009 115.166 12.2614 112.998 9.57093C110.847 6.89994 108.071 4.83154 104.692 3.36056C101.375 1.81447 97.7365 1.04704 93.7895 1.04704C88.4835 1.04704 83.7267 2.13776 79.5397 4.34026C75.336 6.48027 72.1522 9.62621 70.0095 13.7638L70.0094 13.7638L70.0041 13.7744C67.9172 17.9481 67.3469 22.9314 68.2189 28.6722L68.3116 29.2824L68.9223 29.3716L82.7889 31.3983L83.9614 31.5696L83.7262 30.4083C82.6011 24.8529 83.0511 21.0729 84.7484 18.8085C86.5719 16.3997 89.0563 15.1937 92.2961 15.1937C94.1945 15.1937 95.8761 15.7141 97.3669 16.7511L97.3737 16.7558L97.3805 16.7604C98.8982 17.7722 99.8847 19.2206 100.338 21.1631L100.341 21.1758L100.344 21.1884C100.84 23.0459 100.465 25.4219 99.0157 28.3912C97.7162 30.989 95.8641 33.3951 93.4453 35.6076C90.9986 37.7741 88.305 39.7332 85.3632 41.4843L85.3632 41.4843L85.3556 41.4889C82.4632 43.2526 79.6815 44.7664 77.0104 46.0318C74.3903 47.2356 72.243 48.1503 70.5635 48.7801C69.7086 49.1007 69.053 49.3521 68.6 49.5333C68.3745 49.6235 68.192 49.6992 68.0577 49.7589C67.9915 49.7883 67.9275 49.818 67.8723 49.8465C67.845 49.8606 67.8109 49.879 67.7756 49.9007L67.7751 49.901C67.7524 49.9149 67.6761 49.9619 67.6002 50.0378L67.3561 50.2819V50.627V63.0004Z" stroke="black" stroke-width="1.66667"/>
<path d="M8.73062 56.5876L8.73384 56.5916C13.4855 62.457 20.6549 65.327 30.0747 65.327C36.4466 65.327 41.7721 63.9873 45.9951 61.246C50.1957 58.5193 53.3229 54.7233 55.3752 49.8858L55.3769 49.8817C57.4181 44.9974 58.428 39.4093 58.428 33.1337C58.428 23.4789 56.1579 15.7033 51.5278 9.89616C46.8451 3.95121 39.6335 1.04704 30.0747 1.04704C23.6338 1.04704 18.2403 2.38588 13.9481 5.12347C9.74085 7.78114 6.64564 11.5471 4.66423 16.3895C2.6932 21.1355 1.72135 26.724 1.72135 33.1337C1.72135 42.8625 4.0284 50.7098 8.73062 56.5876ZM39.7474 47.1502L39.7454 47.153C37.7385 49.9368 34.5433 51.3937 29.968 51.3937C25.4028 51.3937 22.2096 49.9082 20.1996 47.0589C18.2088 44.1354 17.148 39.5392 17.148 33.1337C17.148 26.4265 18.2506 21.8224 20.2854 19.1306C22.3668 16.3997 25.5399 14.9804 29.968 14.9804C34.6196 14.9804 37.8476 16.4406 39.852 19.221C41.9031 22.066 43.0014 26.6519 43.0014 33.1337C43.0014 39.6095 41.8695 44.2323 39.7474 47.1502Z" stroke="black" stroke-width="1.66667"/>
</svg>
