<svg width="121" height="67" viewBox="0 0 121 67" fill="none" xmlns="http://www.w3.org/2000/svg">
<path d="M74.8328 59.2841L74.8328 59.2842L74.8432 59.2926C79.8681 63.3569 86.5792 65.3447 94.8873 65.3447C99.6589 65.3447 103.887 64.658 107.557 63.2637C111.233 61.8666 114.142 59.7911 116.241 57.0198C118.427 54.2274 119.507 50.8786 119.507 47.018C119.507 43.1878 118.223 39.8581 115.664 37.0714C114.05 35.268 112.069 33.9936 109.746 33.2359C112.121 32.4313 114.022 31.082 115.404 29.1574C117.499 26.2393 118.547 22.9397 118.547 19.2847C118.547 13.9014 116.361 9.56546 112.027 6.35129C107.701 3.07094 101.521 1.49137 93.6073 1.49137C89.6918 1.49137 86.2752 2.07051 83.3795 3.25691C80.5227 4.35676 78.1154 5.83298 76.1768 7.69688C74.3463 9.45419 72.8704 11.3324 71.7588 13.3333C70.6676 15.2974 69.8896 17.141 69.4409 18.861C69.0085 20.5186 68.7739 21.88 68.7739 22.9114V23.6099L69.4617 23.7319L82.6883 26.0786L83.6673 26.2522V25.258C83.6673 22.7833 84.5714 20.5244 86.439 18.4566C88.2445 16.4577 90.7405 15.4247 94.0339 15.4247C97.0923 15.4247 99.3992 16.204 101.055 17.6689L101.068 17.6801L101.081 17.6907C102.806 19.096 103.654 20.8849 103.654 23.1247C103.654 24.6458 103.188 25.6553 102.369 26.3118C101.505 26.9902 100.361 27.4789 98.8982 27.7448L98.8913 27.7461C97.4485 28.0209 96.0073 28.158 94.5673 28.158H88.5939H87.7606V28.9914V36.5647V37.398H88.5939H94.2473C97.2086 37.398 99.5368 37.9499 101.289 38.9883L101.305 38.9974L101.32 39.0059C102.196 39.4749 102.82 40.0728 103.23 40.7915C103.643 41.5132 103.867 42.4045 103.867 43.498C103.867 45.4576 103.12 47.1653 101.564 48.6564L101.558 48.6625L101.551 48.6688C100.114 50.1062 98.0402 50.878 95.2073 50.878C91.249 50.878 88.3773 49.7587 86.446 47.6405C84.5458 45.4073 83.5606 42.4527 83.5606 38.698V37.7311L82.6042 37.8738L68.3109 40.0072L67.6134 40.1113L67.6007 40.8164C67.4553 48.8873 69.8242 55.0978 74.8328 59.2841ZM8.62124 57.032L8.62447 57.0359C13.3762 62.9013 20.5455 65.7714 29.9653 65.7714C36.3372 65.7714 41.6627 64.4316 45.8857 61.6904C50.0863 58.9637 53.2136 55.1676 55.2658 50.3302L55.2675 50.326C57.3087 45.4418 58.3186 39.8536 58.3186 33.578C58.3186 23.9232 56.0485 16.1476 51.4185 10.3405C46.7357 4.39555 39.5241 1.49137 29.9653 1.49137C23.5244 1.49137 18.1309 2.83022 13.8387 5.56781C9.63147 8.22548 6.53626 11.9914 4.55485 16.8338C2.58383 21.5799 1.61198 27.1683 1.61198 33.578C1.61198 43.3068 3.91903 51.1542 8.62124 57.032ZM39.638 47.5946L39.636 47.5974C37.6291 50.3811 34.4339 51.838 29.8586 51.838C25.2935 51.838 22.1003 50.3526 20.0902 47.5033C18.0994 44.5797 17.0386 39.9836 17.0386 33.578C17.0386 26.8709 18.1412 22.2667 20.176 19.5749C22.2575 16.844 25.4305 15.4247 29.8586 15.4247C34.5102 15.4247 37.7382 16.885 39.7427 19.6654C41.7937 22.5103 42.892 27.0962 42.892 33.578C42.892 40.0538 41.7602 44.6767 39.638 47.5946Z" stroke="black" stroke-width="1.66667"/>
</svg>
