<svg width="106" height="46" viewBox="0 0 106 46" fill="none" xmlns="http://www.w3.org/2000/svg">
<path fill-rule="evenodd" clip-rule="evenodd" d="M23 0C10.2975 0 0 10.2975 0 23C0 35.7025 10.2974 46 23 46H83C95.7026 46 106 35.7025 106 23C106 10.2975 95.7026 0 83 0H23ZM21.8879 30.304V32H34.9759V30.208H24.0959C24.2452 30.144 24.6079 29.9307 25.1839 29.568C25.7812 29.184 26.4852 28.704 27.2959 28.128C28.1279 27.5307 28.9812 26.8693 29.8559 26.144C30.7305 25.3973 31.5305 24.6293 32.2559 23.84C32.9812 23.0507 33.5359 22.2827 33.9199 21.536C34.4319 20.5333 34.6559 19.5733 34.5919 18.656C34.5492 17.7173 34.2719 16.896 33.7599 16.192C33.2479 15.4667 32.5439 14.9013 31.6479 14.496C30.7732 14.0907 29.7599 13.888 28.6079 13.888C27.3492 13.888 26.2399 14.1333 25.2799 14.624C24.3199 15.0933 23.5839 15.7867 23.0719 16.704C22.5599 17.6 22.3252 18.6773 22.3679 19.936L24.2559 20.128C24.2132 18.6347 24.5759 17.5147 25.3439 16.768C26.1119 16 27.1359 15.6053 28.4159 15.584C29.5039 15.584 30.4105 15.84 31.1359 16.352C31.8612 16.8427 32.3199 17.5147 32.5119 18.368C32.7252 19.2 32.5759 20.1493 32.0639 21.216C31.6585 22.0053 31.0505 22.8267 30.2399 23.68C29.4505 24.512 28.5759 25.3227 27.6159 26.112C26.6772 26.9013 25.7705 27.6053 24.8959 28.224C24.0425 28.8427 23.3279 29.344 22.7519 29.728C22.1972 30.0907 21.9092 30.2827 21.8879 30.304ZM39.0779 29.92C40.2725 31.6053 42.1285 32.448 44.6459 32.448C46.3312 32.448 47.7179 32.0533 48.8059 31.264C49.8939 30.4747 50.6939 29.376 51.2059 27.968C51.7392 26.5387 52.0059 24.896 52.0059 23.04C52.0059 21.1413 51.7392 19.488 51.2059 18.08C50.6939 16.672 49.8939 15.584 48.8059 14.816C47.7179 14.048 46.3312 13.664 44.6459 13.664C42.9179 13.664 41.5099 14.0587 40.4219 14.848C39.3339 15.616 38.5339 16.704 38.0219 18.112C37.5312 19.4987 37.2859 21.1413 37.2859 23.04C37.2859 25.92 37.8832 28.2133 39.0779 29.92ZM48.7419 28.704C47.8672 30.048 46.4912 30.72 44.6139 30.72C42.7152 30.72 41.3392 30.0373 40.4859 28.672C39.6539 27.3067 39.2379 25.4293 39.2379 23.04C39.2379 20.5653 39.6752 18.6773 40.5499 17.376C41.4245 16.0533 42.7792 15.392 44.6139 15.392C46.5339 15.392 47.9205 16.0747 48.7739 17.44C49.6272 18.784 50.0539 20.6507 50.0539 23.04C50.0539 25.4507 49.6165 27.3387 48.7419 28.704ZM54.0441 30.304V32H67.1321V30.208H56.2521C56.4015 30.144 56.7641 29.9307 57.3401 29.568C57.9375 29.184 58.6415 28.704 59.4521 28.128C60.2841 27.5307 61.1375 26.8693 62.0121 26.144C62.8868 25.3973 63.6868 24.6293 64.4121 23.84C65.1375 23.0507 65.6921 22.2827 66.0761 21.536C66.5881 20.5333 66.8121 19.5733 66.7481 18.656C66.7055 17.7173 66.4281 16.896 65.9161 16.192C65.4041 15.4667 64.7001 14.9013 63.8041 14.496C62.9295 14.0907 61.9161 13.888 60.7641 13.888C59.5055 13.888 58.3961 14.1333 57.4361 14.624C56.4761 15.0933 55.7401 15.7867 55.2281 16.704C54.7161 17.6 54.4815 18.6773 54.5241 19.936L56.4121 20.128C56.3695 18.6347 56.7321 17.5147 57.5001 16.768C58.2681 16 59.2921 15.6053 60.5721 15.584C61.6601 15.584 62.5668 15.84 63.2921 16.352C64.0175 16.8427 64.4761 17.5147 64.6681 18.368C64.8815 19.2 64.7321 20.1493 64.2201 21.216C63.8148 22.0053 63.2068 22.8267 62.3961 23.68C61.6068 24.512 60.7321 25.3227 59.7721 26.112C58.8335 26.9013 57.9268 27.6053 57.0521 28.224C56.1988 28.8427 55.4841 29.344 54.9081 29.728C54.3535 30.0907 54.0655 30.2827 54.0441 30.304ZM69.7941 30.304V32H82.8821V30.208H72.0021C72.1515 30.144 72.5141 29.9307 73.0901 29.568C73.6875 29.184 74.3915 28.704 75.2021 28.128C76.0341 27.5307 76.8875 26.8693 77.7621 26.144C78.6368 25.3973 79.4368 24.6293 80.1621 23.84C80.8875 23.0507 81.4421 22.2827 81.8261 21.536C82.3381 20.5333 82.5621 19.5733 82.4981 18.656C82.4555 17.7173 82.1781 16.896 81.6661 16.192C81.1541 15.4667 80.4501 14.9013 79.5541 14.496C78.6795 14.0907 77.6661 13.888 76.5141 13.888C75.2555 13.888 74.1461 14.1333 73.1861 14.624C72.2261 15.0933 71.4901 15.7867 70.9781 16.704C70.4661 17.6 70.2315 18.6773 70.2741 19.936L72.1621 20.128C72.1195 18.6347 72.4821 17.5147 73.2501 16.768C74.0181 16 75.0421 15.6053 76.3221 15.584C77.4101 15.584 78.3168 15.84 79.0421 16.352C79.7675 16.8427 80.2261 17.5147 80.4181 18.368C80.6315 19.2 80.4821 20.1493 79.9701 21.216C79.5648 22.0053 78.9568 22.8267 78.1461 23.68C77.3568 24.512 76.4821 25.3227 75.5221 26.112C74.5835 26.9013 73.6768 27.6053 72.8021 28.224C71.9488 28.8427 71.2341 29.344 70.6581 29.728C70.1035 30.0907 69.8155 30.2827 69.7941 30.304Z" fill="white"/>
</svg>
