<svg width="106" height="46" viewBox="0 0 106 46" fill="none" xmlns="http://www.w3.org/2000/svg">
<path fill-rule="evenodd" clip-rule="evenodd" d="M23 0C10.2975 0 0 10.2975 0 23C0 35.7025 10.2974 46 23 46H83C95.7026 46 106 35.7025 106 23C106 10.2975 95.7026 0 83 0H23ZM21.8879 30.304V32H34.9759V30.208H24.0959C24.2452 30.144 24.6079 29.9307 25.1839 29.568C25.7812 29.184 26.4852 28.704 27.2959 28.128C28.1279 27.5307 28.9812 26.8693 29.8559 26.144C30.7305 25.3973 31.5305 24.6293 32.2559 23.84C32.9812 23.0507 33.5359 22.2827 33.9199 21.536C34.4319 20.5333 34.6559 19.5733 34.5919 18.656C34.5492 17.7173 34.2719 16.896 33.7599 16.192C33.2479 15.4667 32.5439 14.9013 31.6479 14.496C30.7732 14.0907 29.7599 13.888 28.6079 13.888C27.3492 13.888 26.2399 14.1333 25.2799 14.624C24.3199 15.0933 23.5839 15.7867 23.0719 16.704C22.5599 17.6 22.3252 18.6773 22.3679 19.936L24.2559 20.128C24.2132 18.6347 24.5759 17.5147 25.3439 16.768C26.1119 16 27.1359 15.6053 28.4159 15.584C29.5039 15.584 30.4105 15.84 31.1359 16.352C31.8612 16.8427 32.3199 17.5147 32.5119 18.368C32.7252 19.2 32.5759 20.1493 32.0639 21.216C31.6585 22.0053 31.0505 22.8267 30.2399 23.68C29.4505 24.512 28.5759 25.3227 27.6159 26.112C26.6772 26.9013 25.7705 27.6053 24.8959 28.224C24.0425 28.8427 23.3279 29.344 22.7519 29.728C22.1972 30.0907 21.9092 30.2827 21.8879 30.304ZM39.0779 29.92C40.2725 31.6053 42.1285 32.448 44.6459 32.448C46.3312 32.448 47.7179 32.0533 48.8059 31.264C49.8939 30.4747 50.6939 29.376 51.2059 27.968C51.7392 26.5387 52.0059 24.896 52.0059 23.04C52.0059 21.1413 51.7392 19.488 51.2059 18.08C50.6939 16.672 49.8939 15.584 48.8059 14.816C47.7179 14.048 46.3312 13.664 44.6459 13.664C42.9179 13.664 41.5099 14.0587 40.4219 14.848C39.3339 15.616 38.5339 16.704 38.0219 18.112C37.5312 19.4987 37.2859 21.1413 37.2859 23.04C37.2859 25.92 37.8832 28.2133 39.0779 29.92ZM48.7419 28.704C47.8672 30.048 46.4912 30.72 44.6139 30.72C42.7152 30.72 41.3392 30.0373 40.4859 28.672C39.6539 27.3067 39.2379 25.4293 39.2379 23.04C39.2379 20.5653 39.6752 18.6773 40.5499 17.376C41.4245 16.0533 42.7792 15.392 44.6139 15.392C46.5339 15.392 47.9205 16.0747 48.7739 17.44C49.6272 18.784 50.0539 20.6507 50.0539 23.04C50.0539 25.4507 49.6165 27.3387 48.7419 28.704ZM54.0441 30.304V32H67.1321V30.208H56.2521C56.4015 30.144 56.7641 29.9307 57.3401 29.568C57.9375 29.184 58.6415 28.704 59.4521 28.128C60.2841 27.5307 61.1375 26.8693 62.0121 26.144C62.8868 25.3973 63.6868 24.6293 64.4121 23.84C65.1375 23.0507 65.6921 22.2827 66.0761 21.536C66.5881 20.5333 66.8121 19.5733 66.7481 18.656C66.7055 17.7173 66.4281 16.896 65.9161 16.192C65.4041 15.4667 64.7001 14.9013 63.8041 14.496C62.9295 14.0907 61.9161 13.888 60.7641 13.888C59.5055 13.888 58.3961 14.1333 57.4361 14.624C56.4761 15.0933 55.7401 15.7867 55.2281 16.704C54.7161 17.6 54.4815 18.6773 54.5241 19.936L56.4121 20.128C56.3695 18.6347 56.7321 17.5147 57.5001 16.768C58.2681 16 59.2921 15.6053 60.5721 15.584C61.6601 15.584 62.5668 15.84 63.2921 16.352C64.0175 16.8427 64.4761 17.5147 64.6681 18.368C64.8815 19.2 64.7321 20.1493 64.2201 21.216C63.8148 22.0053 63.2068 22.8267 62.3961 23.68C61.6068 24.512 60.7321 25.3227 59.7721 26.112C58.8335 26.9013 57.9268 27.6053 57.0521 28.224C56.1988 28.8427 55.4841 29.344 54.9081 29.728C54.3535 30.0907 54.0655 30.2827 54.0441 30.304ZM73.1861 31.648C74.2528 32.096 75.3835 32.32 76.5781 32.32C77.8581 32.32 78.9995 32.1067 80.0021 31.68C81.0048 31.2533 81.7941 30.656 82.3701 29.888C82.9675 29.0987 83.2661 28.1707 83.2661 27.104C83.2661 25.9733 82.9141 25.024 82.2101 24.256C81.5061 23.488 80.6528 22.9973 79.6501 22.784C80.6315 22.528 81.3995 22.08 81.9541 21.44C82.5301 20.7787 82.8181 19.9147 82.8181 18.848C82.8181 17.248 82.2421 15.9893 81.0901 15.072C79.9381 14.1333 78.3808 13.664 76.4181 13.664C75.1808 13.664 74.1461 13.888 73.3141 14.336C72.5035 14.7627 71.8528 15.2853 71.3621 15.904C70.8715 16.5227 70.5195 17.1413 70.3061 17.76C70.0928 18.3573 69.9755 18.8267 69.9541 19.168L71.8101 19.392C71.8528 18.9013 72.0235 18.3467 72.3221 17.728C72.6421 17.1093 73.1328 16.5653 73.7941 16.096C74.4768 15.6267 75.3621 15.392 76.4501 15.392C77.8155 15.392 78.9035 15.7333 79.7141 16.416C80.5248 17.0987 80.9301 18.0373 80.9301 19.232C80.9301 20.1493 80.6208 20.864 80.0021 21.376C79.3835 21.888 78.5408 22.144 77.4741 22.144H74.8821V23.328H77.4421C77.8901 23.328 78.4128 23.424 79.0101 23.616C79.6288 23.808 80.1621 24.16 80.6101 24.672C81.0795 25.1627 81.3141 25.8667 81.3141 26.784C81.3141 27.5307 81.1008 28.192 80.6741 28.768C80.2475 29.3227 79.6821 29.7493 78.9781 30.048C78.2741 30.3467 77.4848 30.496 76.6101 30.496C75.7781 30.496 74.9781 30.336 74.2101 30.016C73.4635 29.6747 72.8448 29.1627 72.3541 28.48C71.8635 27.7973 71.5968 26.9333 71.5541 25.888L69.6021 26.08C69.6235 27.488 69.9541 28.6507 70.5941 29.568C71.2555 30.4853 72.1195 31.1787 73.1861 31.648Z" fill="white"/>
</svg>
