<svg width="106" height="46" viewBox="0 0 106 46" fill="none" xmlns="http://www.w3.org/2000/svg">
<path fill-rule="evenodd" clip-rule="evenodd" d="M23 0C10.2975 0 0 10.2975 0 23C0 35.7025 10.2974 46 23 46H83C95.7026 46 106 35.7025 106 23C106 10.2975 95.7026 0 83 0H23ZM21.7941 30.304V32H34.8821V30.208H24.0021C24.1515 30.144 24.5141 29.9307 25.0901 29.568C25.6875 29.184 26.3915 28.704 27.2021 28.128C28.0341 27.5307 28.8875 26.8693 29.7621 26.144C30.6368 25.3973 31.4368 24.6293 32.1621 23.84C32.8875 23.0507 33.4421 22.2827 33.8261 21.536C34.3381 20.5333 34.5621 19.5733 34.4981 18.656C34.4555 17.7173 34.1781 16.896 33.6661 16.192C33.1541 15.4667 32.4501 14.9013 31.5541 14.496C30.6795 14.0907 29.6661 13.888 28.5141 13.888C27.2555 13.888 26.1461 14.1333 25.1861 14.624C24.2261 15.0933 23.4901 15.7867 22.9781 16.704C22.4661 17.6 22.2315 18.6773 22.2741 19.936L24.1621 20.128C24.1195 18.6347 24.4821 17.5147 25.2501 16.768C26.0181 16 27.0421 15.6053 28.3221 15.584C29.4101 15.584 30.3168 15.84 31.0421 16.352C31.7675 16.8427 32.2261 17.5147 32.4181 18.368C32.6315 19.2 32.4821 20.1493 31.9701 21.216C31.5648 22.0053 30.9568 22.8267 30.1461 23.68C29.3568 24.512 28.4821 25.3227 27.5221 26.112C26.5835 26.9013 25.6768 27.6053 24.8021 28.224C23.9488 28.8427 23.2341 29.344 22.6581 29.728C22.1035 30.0907 21.8155 30.2827 21.7941 30.304ZM38.9841 29.92C40.1788 31.6053 42.0348 32.448 44.5521 32.448C46.2375 32.448 47.6241 32.0533 48.7121 31.264C49.8001 30.4747 50.6001 29.376 51.1121 27.968C51.6455 26.5387 51.9121 24.896 51.9121 23.04C51.9121 21.1413 51.6455 19.488 51.1121 18.08C50.6001 16.672 49.8001 15.584 48.7121 14.816C47.6241 14.048 46.2375 13.664 44.5521 13.664C42.8241 13.664 41.4161 14.0587 40.3281 14.848C39.2401 15.616 38.4401 16.704 37.9281 18.112C37.4375 19.4987 37.1921 21.1413 37.1921 23.04C37.1921 25.92 37.7895 28.2133 38.9841 29.92ZM48.6481 28.704C47.7735 30.048 46.3975 30.72 44.5201 30.72C42.6215 30.72 41.2455 30.0373 40.3921 28.672C39.5601 27.3067 39.1441 25.4293 39.1441 23.04C39.1441 20.5653 39.5815 18.6773 40.4561 17.376C41.3308 16.0533 42.6855 15.392 44.5201 15.392C46.4401 15.392 47.8268 16.0747 48.6801 17.44C49.5335 18.784 49.9601 20.6507 49.9601 23.04C49.9601 25.4507 49.5228 27.3387 48.6481 28.704ZM53.9504 30.304V32H67.0384V30.208H56.1584C56.3077 30.144 56.6704 29.9307 57.2464 29.568C57.8437 29.184 58.5477 28.704 59.3584 28.128C60.1904 27.5307 61.0437 26.8693 61.9184 26.144C62.793 25.3973 63.593 24.6293 64.3184 23.84C65.0437 23.0507 65.5984 22.2827 65.9824 21.536C66.4944 20.5333 66.7184 19.5733 66.6544 18.656C66.6117 17.7173 66.3344 16.896 65.8224 16.192C65.3104 15.4667 64.6064 14.9013 63.7104 14.496C62.8357 14.0907 61.8224 13.888 60.6704 13.888C59.4117 13.888 58.3024 14.1333 57.3424 14.624C56.3824 15.0933 55.6464 15.7867 55.1344 16.704C54.6224 17.6 54.3877 18.6773 54.4304 19.936L56.3184 20.128C56.2757 18.6347 56.6384 17.5147 57.4064 16.768C58.1744 16 59.1984 15.6053 60.4784 15.584C61.5664 15.584 62.473 15.84 63.1984 16.352C63.9237 16.8427 64.3824 17.5147 64.5744 18.368C64.7877 19.2 64.6384 20.1493 64.1264 21.216C63.721 22.0053 63.113 22.8267 62.3024 23.68C61.513 24.512 60.6384 25.3227 59.6784 26.112C58.7397 26.9013 57.833 27.6053 56.9584 28.224C56.105 28.8427 55.3904 29.344 54.8144 29.728C54.2597 30.0907 53.9717 30.2827 53.9504 30.304ZM69.2844 26.4V28.192H78.7884V32H80.8364V28.192H83.3324V26.4H80.8364V23.008H78.7884V26.4H71.5244C72.911 25.4613 74.159 24.32 75.2684 22.976C76.3777 21.6107 77.2524 20.16 77.8924 18.624C78.5537 17.0667 78.8844 15.52 78.8844 13.984H76.7084C76.687 15.136 76.4844 16.3413 76.1004 17.6C75.7164 18.8373 75.183 20.0427 74.5004 21.216C73.839 22.368 73.0604 23.4027 72.1644 24.32C71.2684 25.216 70.3084 25.9093 69.2844 26.4Z" fill="white"/>
</svg>
