<svg width="24" height="24" viewBox="0 0 24 24" fill="none" xmlns="http://www.w3.org/2000/svg">
<g clip-path="url(#clip0_554_443)">
<path d="M11.1307 8.5799C11.1307 9.48521 10.7718 10.3536 10.1325 10.9947C9.49333 11.6358 8.62601 11.9973 7.7207 11.9999H0.720703V5.1499H7.7207C8.16982 5.15121 8.61429 5.24097 9.02872 5.41406C9.44315 5.58714 9.81944 5.84016 10.1361 6.15866C10.4527 6.47717 10.7035 6.85492 10.8742 7.27036C11.0449 7.6858 11.132 8.13078 11.1307 8.5799Z" stroke="white" stroke-width="1.5" stroke-linecap="round" stroke-linejoin="round"/>
<path d="M11.1307 15.42C11.1307 16.3253 10.7718 17.1937 10.1325 17.8348C9.49333 18.4759 8.62601 18.8374 7.7207 18.84H0.720703V12H7.7207C8.62601 12.0026 9.49333 12.3641 10.1325 13.0052C10.7718 13.6463 11.1307 14.5147 11.1307 15.42Z" stroke="white" stroke-width="1.5" stroke-linecap="round" stroke-linejoin="round"/>
<path d="M22.8707 15.85C22.4011 16.9703 21.5313 17.8757 20.4307 18.3899C19.3301 18.9041 18.0775 18.9902 16.9169 18.6315C15.7563 18.2728 14.7708 17.495 14.1522 16.4495C13.5337 15.4039 13.3265 14.1656 13.5709 12.9757C13.8153 11.7858 14.4939 10.7294 15.4744 10.0124C16.455 9.29531 17.6674 8.96891 18.8754 9.09674C20.0835 9.22457 21.2007 9.79746 22.0095 10.7039C22.8183 11.6102 23.2607 12.7852 23.2507 14H13.4707" stroke="white" stroke-width="1.5" stroke-linecap="round" stroke-linejoin="round"/>
<path d="M15.9102 6.12988H20.8002" stroke="white" stroke-width="1.5" stroke-linecap="round" stroke-linejoin="round"/>
</g>
<defs>
<clipPath id="clip0_554_443">
<rect width="24" height="24" fill="white"/>
</clipPath>
</defs>
</svg>
