<svg width="453" height="73" viewBox="0 0 453 73" fill="none" xmlns="http://www.w3.org/2000/svg">
<path d="M64 9.81333L60.0533 20.16C49.0667 3.62666 35.9467 0 24.7467 4.05333C8.53333 9.92 6.72 31.2533 11.84 45.44C18.1333 62.9333 39.68 74.1333 56.1067 65.4933V49.6C56.1067 38.2933 53.8667 35.3067 49.28 35.52V34.56H73.0667V35.52C68.48 35.3067 66.24 38.2933 66.24 49.6V69.76H65.28C64 64.8533 60.9067 63.8933 57.0667 66.6667C51.2 70.9333 44.16 72.96 36.8 72.96C15.8933 72.96 0 57.3867 0 36.48C0 16 16.5333 0 36.8 0C46.72 0 56.8533 3.62666 64 9.81333Z" fill="white"/>
<path d="M110.127 0L133.593 66.9867C134.66 70.2933 136.473 72.2133 140.313 72.1067V72.96H118.767V72.1067C122.393 72.2133 124.1 70.6133 122.927 66.9867L115.673 46.4C111.94 54.2933 105.86 55.8933 97.3267 53.12C93.1667 51.6267 84.5267 48 82.18 54.72L79.94 60.6933C79.4067 62.5067 79.3 64.1067 79.94 65.92C80.1533 66.6667 80.4733 67.52 80.6867 68.2667C81.7533 71.36 83.78 72.2133 87.1933 72.1067V72.96C81.9667 72.96 74.18 72.96 69.1667 72.96V72.1067C72.58 72.2133 74.6067 70.4 75.6733 67.4133L99.3533 0H110.127ZM115.033 44.2667L100.42 2.77333L84.6333 47.4667C88.3667 42.6667 93.7 41.92 100.74 44.2667C105.647 45.8667 111.087 48.5333 115.033 44.2667Z" fill="white"/>
<path d="M160.502 15.1467V71.04H178.315C188.768 71.04 200.395 63.5733 204.342 53.76H205.302L199.115 72.96H143.542V72C148.128 72.2133 150.368 69.2267 150.368 57.92V15.1467C150.368 3.84 148.128 0.746663 143.542 0.96V0H167.328V0.96C162.742 0.746663 160.502 3.84 160.502 15.1467Z" fill="white"/>
<path d="M222.168 15.1467V71.04H239.982C250.435 71.04 262.062 63.5733 266.008 53.76H266.968L260.782 72.96H205.208V72C209.795 72.2133 212.035 69.2267 212.035 57.92V15.1467C212.035 3.84 209.795 0.746663 205.208 0.96V0H228.995V0.96C224.408 0.746663 222.168 3.84 222.168 15.1467Z" fill="white"/>
<path d="M266.875 72.96V72C271.462 72.2133 273.702 69.2267 273.702 57.92V15.1467C273.702 3.84 271.462 0.746663 266.875 0.96V0H321.808L326.288 16.1067H325.328C322.022 7.89333 311.888 1.92 303.248 1.92H283.835V38.9333C287.568 30.8267 293.648 29.2267 302.182 32.1067C307.408 33.92 313.275 36.9067 317.328 30.72L318.182 31.1467C314.555 41.7067 308.155 44.0533 298.768 40.8533C293.542 39.1467 287.888 36.2667 283.835 41.92V71.04H302.608C313.062 71.04 324.688 63.5733 328.635 53.76H329.488L323.408 72.96H266.875Z" fill="white"/>
<path d="M349.46 57.92C349.46 69.2267 351.7 72.2133 356.287 72V72.96H332.5V72C337.087 72.2133 339.327 69.2267 339.327 57.92V15.1467C339.327 3.84 337.087 0.746663 332.5 0.96V0H372.287C380.927 0 391.38 3.2 391.38 13.6533C391.38 24.2133 380.82 28.0533 370.793 31.5733C376.873 32.2133 380.287 35.3067 381.887 40C383.913 45.9733 388.287 62.5067 392.127 66.6667C393.62 68.3733 396.073 69.76 398.207 67.9467L398.953 68.5867C397.46 71.68 394.367 72.96 391.273 72.96C386.047 72.96 382.953 70.1867 380.927 66.3467C377.087 59.3067 375.06 48.96 372.393 41.7067C370.153 35.3067 366.74 32.5333 360.233 35.6267C356.18 37.5467 351.7 41.28 349.46 43.84V57.92ZM349.46 1.92V41.0667C352.233 38.2933 355.647 35.9467 359.38 33.6C366.313 29.0133 381.14 22.8267 381.14 13.2267C381.247 3.73333 371.753 1.92 364.287 1.92H349.46Z" fill="white"/>
<path d="M411.794 6.18666L425.661 31.1467L440.594 9.06666C441.341 8 441.554 6.93333 441.021 5.65333C440.914 5.33333 440.807 5.01333 440.701 4.69333C439.634 1.6 437.714 0.853329 434.407 0.96V0H452.541V0.96C448.274 0.853329 446.034 4.58666 443.901 7.68L427.794 31.2533V57.92C427.794 69.2267 430.034 72.2133 434.727 72V72.96H410.834V72C415.421 72.2133 417.661 69.2267 417.661 57.92V37.76L401.127 7.78667C399.207 4.26666 397.501 0.746663 393.021 0.96V0H414.354V0.96C410.834 0.853329 410.087 3.2 411.794 6.18666Z" fill="white"/>
</svg>
