<svg width="1927" height="156" viewBox="0 0 1927 156" fill="none" xmlns="http://www.w3.org/2000/svg">
<path d="M0 34.2827V2.65752H118.799V34.2827H77.9535V152.279H40.5785V34.2827H0Z" fill="white"/>
<path d="M176.321 152.279H138.946V2.65752H176.321V62.9846H233.719V2.65752H271.094V152.279H233.719V91.155H176.321V152.279Z" fill="white"/>
<path d="M364.992 156C340.075 156 321.032 149.002 307.862 135.005C294.692 120.831 288.106 101.785 288.106 77.8671C288.106 62.0987 290.954 48.4565 296.649 36.9403C302.345 25.247 310.887 16.2112 322.278 9.83299C333.668 3.27762 347.906 -6.10352e-05 364.992 -6.10352e-05C389.909 -6.10352e-05 408.863 7.08682 421.855 21.2606C434.848 35.2572 441.344 54.126 441.344 77.8671C441.344 93.281 438.407 106.923 432.534 118.794C426.839 130.487 418.296 139.612 406.905 146.167C395.693 152.722 381.722 156 364.992 156ZM364.458 120.123C373.535 120.123 381.01 118.262 386.883 114.542C392.934 110.644 397.384 105.506 400.231 99.1277C403.257 92.5723 404.77 85.4855 404.77 77.8671C404.77 70.0715 403.257 62.896 400.231 56.3406C397.384 49.7853 392.934 44.5587 386.883 40.6609C381.01 36.7631 373.535 34.8142 364.458 34.8142C351.466 34.8142 341.499 38.8892 334.558 47.0391C327.795 55.189 324.414 65.465 324.414 77.8671C324.414 85.3083 325.837 92.3066 328.685 98.8619C331.711 105.24 336.16 110.378 342.033 114.276C347.906 118.174 355.381 120.123 364.458 120.123Z" fill="white"/>
<path d="M465.675 152.279V2.65752H530.547L552.705 136.865H553.239L574.863 2.65752H639.469V152.279H600.759L603.429 18.3372H603.162L579.669 152.279H525.475L502.516 18.3372H501.982L504.385 152.279H465.675Z" fill="white"/>
<path d="M656.165 152.279V135.027L705.198 1.42839H744.297L793.752 135.658V152.279H656.165ZM692.94 125.56H756.766L734.152 54.8679C733.448 52.4835 732.461 49.4678 731.193 45.8211C730.066 42.1743 728.868 38.4574 727.6 34.6703C726.473 30.8832 725.557 27.5871 724.853 24.7819C724.148 27.5871 723.162 31.0936 721.894 35.3015C720.626 39.369 719.428 43.2964 718.301 47.0834C717.174 50.7302 716.329 53.325 715.765 54.8679L692.94 125.56Z" fill="white"/>
<path d="M871.128 154.937C862.585 154.937 854.22 153.962 846.033 152.014C837.846 150.065 830.46 146.964 823.875 142.712C817.29 138.283 811.951 132.613 807.857 125.704C803.942 118.794 801.984 110.467 801.984 100.722H839.359C839.359 101.785 839.715 103.468 840.427 105.772C841.317 107.898 842.919 110.201 845.232 112.681C847.724 115.162 851.194 117.288 855.644 119.06C860.271 120.654 866.411 121.451 874.064 121.451C877.446 121.451 880.916 121.186 884.476 120.654C888.035 120.123 891.061 119.06 893.553 117.465C896.044 115.693 897.29 113.036 897.29 109.492C897.29 105.772 895.51 102.848 891.951 100.722C888.569 98.5962 884.031 96.9131 878.336 95.6729C872.818 94.2555 866.678 92.8381 859.915 91.4207C853.33 90.0033 846.745 88.2316 840.16 86.1056C833.575 83.9795 827.524 81.1447 822.006 77.6013C816.667 73.8807 812.485 69.1856 809.459 63.5161C806.611 57.6694 805.454 50.4054 805.988 41.724C806.878 28.6132 813.108 18.4258 824.676 11.1618C836.244 3.72055 852.351 -6.10352e-05 872.996 -6.10352e-05C884.031 -6.10352e-05 894.354 1.94883 903.964 5.84662C913.753 9.7444 921.673 15.6797 927.724 23.6524C933.953 31.6252 937.068 41.724 937.068 53.9488H901.028C901.028 48.4565 899.159 44.3815 895.421 41.724C891.862 38.8892 887.502 37.0289 882.34 36.143C877.357 35.2572 872.818 34.8142 868.725 34.8142C862.14 34.8142 856.623 35.6115 852.173 37.2061C847.902 38.8006 845.766 41.9011 845.766 46.5076C845.766 50.5826 847.546 53.7717 851.105 56.0749C854.665 58.201 859.292 59.9727 864.988 61.3901C870.683 62.6303 876.912 63.959 883.675 65.3764C890.616 66.6166 897.468 68.2112 904.231 70.1601C910.994 72.109 917.046 74.8551 922.385 78.3986C927.902 81.7648 932.174 86.2827 935.199 91.9522C938.403 97.6217 939.648 104.886 938.937 113.744C938.047 126.678 931.462 136.777 919.181 144.041C907.079 151.305 891.061 154.937 871.128 154.937Z" fill="white"/>
<path d="M1055.91 152.279H1018.54V2.65752H1082.08C1099.16 2.65752 1112.6 7.08682 1122.39 15.9454C1132.36 24.6269 1137.34 37.7376 1137.34 55.2776C1137.34 70.1601 1132.27 81.942 1122.12 90.6234C1111.98 99.1277 1098.63 103.38 1082.08 103.38H1055.91V152.279ZM1076.47 32.4224H1055.91V77.3355H1076.47C1083.95 77.3355 1090.35 75.4752 1095.69 71.7546C1101.03 67.8568 1103.7 62.1873 1103.7 54.7461C1103.7 47.1277 1101.03 41.5468 1095.69 38.0033C1090.53 34.2827 1084.12 32.4224 1076.47 32.4224Z" fill="white"/>
<path d="M1221.38 156C1196.47 156 1177.42 149.002 1164.25 135.005C1151.08 120.831 1144.5 101.785 1144.5 77.8671C1144.5 62.0987 1147.34 48.4565 1153.04 36.9403C1158.73 25.247 1167.28 16.2112 1178.67 9.83299C1190.06 3.27762 1204.3 -6.10352e-05 1221.38 -6.10352e-05C1246.3 -6.10352e-05 1265.25 7.08682 1278.25 21.2606C1291.24 35.2572 1297.73 54.126 1297.73 77.8671C1297.73 93.281 1294.8 106.923 1288.92 118.794C1283.23 130.487 1274.69 139.612 1263.3 146.167C1252.08 152.722 1238.11 156 1221.38 156ZM1220.85 120.123C1229.93 120.123 1237.4 118.262 1243.27 114.542C1249.32 110.644 1253.77 105.506 1256.62 99.1277C1259.65 92.5723 1261.16 85.4855 1261.16 77.8671C1261.16 70.0715 1259.65 62.896 1256.62 56.3406C1253.77 49.7853 1249.32 44.5587 1243.27 40.6609C1237.4 36.7631 1229.93 34.8142 1220.85 34.8142C1207.86 34.8142 1197.89 38.8892 1190.95 47.0391C1184.19 55.189 1180.8 65.465 1180.8 77.8671C1180.8 85.3083 1182.23 92.3066 1185.08 98.8619C1188.1 105.24 1192.55 110.378 1198.42 114.276C1204.3 118.174 1211.77 120.123 1220.85 120.123Z" fill="white"/>
<path d="M1391.41 156C1368.99 156 1351.99 150.153 1340.42 138.46C1329.03 126.589 1323.34 109.935 1323.34 88.4974V2.65752H1363.38V88.2316C1363.38 95.6728 1364.36 101.608 1366.32 106.037C1368.28 110.29 1370.68 113.479 1373.53 115.605C1376.55 117.731 1379.67 119.148 1382.87 119.857C1386.07 120.388 1388.92 120.654 1391.41 120.654C1395.51 120.654 1399.69 120.034 1403.96 118.794C1408.41 117.554 1412.15 114.63 1415.17 110.024C1418.2 105.417 1419.71 98.1533 1419.71 88.2316V2.65752H1459.76V88.4974C1459.76 110.29 1454.06 127.032 1442.67 138.726C1431.46 150.242 1414.37 156 1391.41 156Z" fill="white"/>
<path d="M1523.36 152.279H1485.99V2.65752H1549.53C1566.61 2.65752 1580.05 7.08682 1589.84 15.9454C1599.8 24.6269 1604.79 37.7376 1604.79 55.2776C1604.79 70.1601 1599.71 81.942 1589.57 90.6234C1579.43 99.1277 1566.08 103.38 1549.53 103.38H1523.36V152.279ZM1543.92 32.4224H1523.36V77.3355H1543.92C1551.39 77.3355 1557.8 75.4752 1563.14 71.7546C1568.48 67.8568 1571.15 62.1873 1571.15 54.7461C1571.15 47.1277 1568.48 41.5468 1563.14 38.0033C1557.98 34.2827 1551.57 32.4224 1543.92 32.4224Z" fill="white"/>
<path d="M1688.83 156C1663.91 156 1644.87 149.002 1631.7 135.005C1618.53 120.831 1611.94 101.785 1611.94 77.8671C1611.94 62.0987 1614.79 48.4565 1620.49 36.9403C1626.18 25.247 1634.73 16.2112 1646.12 9.83299C1657.51 3.27762 1671.74 -6.10352e-05 1688.83 -6.10352e-05C1713.75 -6.10352e-05 1732.7 7.08682 1745.69 21.2606C1758.69 35.2572 1765.18 54.126 1765.18 77.8671C1765.18 93.281 1762.25 106.923 1756.37 118.794C1750.68 130.487 1742.13 139.612 1730.74 146.167C1719.53 152.722 1705.56 156 1688.83 156ZM1688.3 120.123C1697.37 120.123 1704.85 118.262 1710.72 114.542C1716.77 110.644 1721.22 105.506 1724.07 99.1277C1727.1 92.5723 1728.61 85.4855 1728.61 77.8671C1728.61 70.0715 1727.1 62.896 1724.07 56.3406C1721.22 49.7853 1716.77 44.5587 1710.72 40.6609C1704.85 36.7631 1697.37 34.8142 1688.3 34.8142C1675.3 34.8142 1665.34 38.8892 1658.4 47.0391C1651.63 55.189 1648.25 65.465 1648.25 77.8671C1648.25 85.3083 1649.68 92.3066 1652.52 98.8619C1655.55 105.24 1660 110.378 1665.87 114.276C1671.74 118.174 1679.22 120.123 1688.3 120.123Z" fill="white"/>
<path d="M1888.02 2.65752H1927V152.279H1855.45L1827.42 18.8688H1826.89V152.279H1788.18V2.65752H1854.39L1887.49 136.068H1888.02V2.65752Z" fill="white"/>
</svg>
