<svg width="1730" height="70" viewBox="0 0 1730 70" fill="none" xmlns="http://www.w3.org/2000/svg">
<path d="M65.4709 70H34.3598V28.7775H0.582031V2.33307H99.4709V28.7775H65.4709V70Z" fill="white"/>
<path d="M226.242 70H116.242V2.33307H147.353V52.7775H195.131V2.33307H226.242V70Z" fill="white"/>
<path d="M367.843 70C367.92 68.4306 367.959 66.8379 367.959 65.222C367.959 45.3701 362.551 29.5923 351.737 17.8886C340.922 6.03677 325.144 0.11084 304.403 0.11084C290.181 0.11084 278.329 2.85159 268.848 8.33307C259.366 13.6664 252.255 21.222 247.514 30.9997C242.774 40.6294 240.403 52.0368 240.403 65.222C240.403 66.8413 240.439 68.434 240.511 70H270.866C270.706 68.4323 270.625 66.8397 270.625 65.222C270.625 54.8516 273.44 46.259 279.07 39.4442C284.848 32.6294 293.144 29.222 303.959 29.222C311.514 29.222 317.737 30.8516 322.625 34.1108C327.662 37.3701 331.366 41.7405 333.737 47.222C336.255 52.7034 337.514 58.7034 337.514 65.222C337.514 66.8434 337.433 68.4361 337.27 70H367.843Z" fill="white"/>
<path d="M419.409 70H388.212V2.33307H442.212L453.334 70H428.188L418.879 15.4442H418.434L419.409 70Z" fill="white"/>
<path d="M501.796 70L502.879 15.4442H502.657L493.131 70H468.248L479.101 2.33307H532.879V70H501.796Z" fill="white"/>
<path d="M656.099 70L635.907 2.33307H585.018L565.547 70H597.005L611.018 15.222L625.243 70H656.099Z" fill="white"/>
<path d="M787.163 70H707.546C704.208 68.5805 701.056 66.9138 698.089 64.9997C693.644 61.8886 690.163 57.9627 687.644 53.222C685.274 48.3331 684.311 42.259 684.756 34.9997C685.496 24.0368 690.682 15.5182 700.311 9.44418C709.941 3.22195 723.348 0.11084 740.533 0.11084C749.719 0.11084 758.311 1.74048 766.311 4.99973C774.459 8.25897 781.052 13.222 786.089 19.8886C791.274 26.5553 793.867 34.9997 793.867 45.222H763.867C763.867 40.6294 762.311 37.222 759.2 34.9997C756.237 32.6294 752.607 31.0738 748.311 30.3331C744.163 29.5923 740.385 29.222 736.978 29.222C731.496 29.222 726.904 29.8886 723.2 31.222C719.645 32.5553 717.867 35.1479 717.867 38.9997C717.867 42.4071 719.348 45.0738 722.311 46.9997C725.274 48.7775 729.126 50.259 733.867 51.4442C738.607 52.4812 743.793 53.5923 749.422 54.7775C755.2 55.8145 760.904 57.1479 766.533 58.7775C772.163 60.4071 777.2 62.7034 781.645 65.6664C783.69 66.92 785.529 68.3645 787.163 70Z" fill="white"/>
<path d="M901.555 70H868.224C868.343 60.8974 875.759 53.555 884.889 53.555C894.02 53.555 901.436 60.8974 901.555 70Z" fill="white"/>
<path fill-rule="evenodd" clip-rule="evenodd" d="M1064.64 70H972.91V2.33307H1025.8C1040.02 2.33307 1051.21 6.03677 1059.35 13.4442C1067.65 20.7034 1071.8 31.6664 1071.8 46.3331C1071.8 55.6867 1069.41 63.5757 1064.64 70ZM1004.02 27.222H1021.13C1027.5 27.222 1032.84 28.7775 1037.13 31.8886C1041.58 34.8516 1043.8 39.5182 1043.8 45.8886C1043.8 52.1108 1041.58 56.8516 1037.13 60.1108C1032.69 63.222 1027.35 64.7775 1021.13 64.7775H1004.02V27.222Z" fill="white"/>
<path d="M1205.2 70C1205.27 68.4306 1205.31 66.8379 1205.31 65.222C1205.31 45.3701 1199.91 29.5923 1189.09 17.8886C1178.28 6.03677 1162.5 0.11084 1141.76 0.11084C1127.54 0.11084 1115.68 2.85159 1106.2 8.33307C1096.72 13.6664 1089.61 21.222 1084.87 30.9997C1080.13 40.6294 1077.76 52.0368 1077.76 65.222C1077.76 66.8413 1077.79 68.434 1077.87 70H1108.22C1108.06 68.4323 1107.98 66.8397 1107.98 65.222C1107.98 54.8516 1110.79 46.259 1116.42 39.4442C1122.2 32.6294 1130.5 29.222 1141.31 29.222C1148.87 29.222 1155.09 30.8516 1159.98 34.1108C1165.02 37.3701 1168.72 41.7405 1171.09 47.222C1173.61 52.7034 1174.87 58.7034 1174.87 65.222C1174.87 66.8434 1174.79 68.4361 1174.62 70H1205.2Z" fill="white"/>
<path fill-rule="evenodd" clip-rule="evenodd" d="M1453.75 70H1362.02V2.33307H1414.9C1429.13 2.33307 1440.31 6.03677 1448.46 13.4442C1456.76 20.7034 1460.9 31.6664 1460.9 46.3331C1460.9 55.6867 1458.52 63.5757 1453.75 70ZM1410.24 27.222H1393.13V64.7775H1410.24C1416.46 64.7775 1421.79 63.222 1426.24 60.1108C1430.68 56.8516 1432.9 52.1108 1432.9 45.8886C1432.9 39.5182 1430.68 34.8516 1426.24 31.8886C1421.94 28.7775 1416.61 27.222 1410.24 27.222Z" fill="white"/>
<path d="M1594.3 70C1594.38 68.4306 1594.42 66.8379 1594.42 65.222C1594.42 45.3701 1589.01 29.5923 1578.2 17.8886C1567.38 6.03677 1551.6 0.11084 1530.86 0.11084C1516.64 0.11084 1504.79 2.85159 1495.31 8.33307C1485.83 13.6664 1478.72 21.222 1473.97 30.9997C1469.23 40.6294 1466.86 52.0368 1466.86 65.222C1466.86 66.8413 1466.9 68.434 1466.97 70H1497.33C1497.17 68.4323 1497.09 66.8397 1497.09 65.222C1497.09 54.8516 1499.9 46.259 1505.53 39.4442C1511.31 32.6294 1519.6 29.222 1530.42 29.222C1537.97 29.222 1544.2 30.8516 1549.09 34.1108C1554.12 37.3701 1557.83 41.7405 1560.2 47.222C1562.72 52.7034 1563.97 58.7034 1563.97 65.222C1563.97 66.8434 1563.89 68.4361 1563.73 70H1594.3Z" fill="white"/>
<path d="M1645.78 70H1613.56V2.33307H1668.67L1685.39 70H1657.55L1646.23 15.8886H1645.78V70Z" fill="white"/>
<path d="M1729.12 70V2.33307H1696.67V70H1729.12Z" fill="white"/>
<path d="M1340.18 70H1306.85V2.33307H1340.18V70Z" fill="white"/>
<path d="M1259.96 70H1226.63V2.33307H1259.96V70Z" fill="white"/>
</svg>
