<svg width="51" height="50" viewBox="0 0 51 50" fill="none" xmlns="http://www.w3.org/2000/svg">
<path fill-rule="evenodd" clip-rule="evenodd" d="M26.2933 15.2885L25.8711 0L25.4489 15.2885C25.4157 16.494 25.1598 17.6434 24.721 18.6972C23.2653 18.3239 21.9298 17.4017 21.0665 15.9343L18.4105 11.4198L20.8872 16.0352C22.5998 19.2265 21.0943 22.9617 18.0983 24.3259C17.4736 24.4733 16.8252 24.5595 16.1596 24.5778L0.871094 25L16.1596 25.4222C16.8445 25.4411 17.5113 25.5318 18.1528 25.6872C21.0692 27.1444 22.4527 30.8787 20.6816 34.0052L18.1 38.5627L20.8587 34.1102C21.7924 32.6031 23.2246 31.6986 24.7578 31.3922C25.1741 32.4215 25.4166 33.54 25.4489 34.7115L25.8711 50L26.2933 34.7115C26.3258 33.5296 26.5724 32.4015 26.9957 31.3648C28.6288 31.6492 30.1604 32.6052 31.1149 34.2275L33.7709 38.7419L31.2943 34.1267C29.3616 30.5251 31.5274 26.2308 35.3086 25.4336C35.3996 25.4285 35.4909 25.4247 35.5826 25.4222L41.3185 25.2637L41.7617 25.2602L41.6152 25.2556L50.8711 25L35.5826 24.5778C34.98 24.5612 34.3914 24.489 33.8218 24.3661C31.0478 22.8388 29.7712 19.2083 31.4998 16.1565L34.0814 11.5991L31.3228 16.0516C30.3189 17.6718 28.7391 18.5956 27.077 18.8284C26.6041 17.7392 26.3279 16.5442 26.2933 15.2885Z" fill="white"/>
</svg>
