<svg width="131" height="132" viewBox="0 0 131 132" fill="none" xmlns="http://www.w3.org/2000/svg">
<path fill-rule="evenodd" clip-rule="evenodd" d="M66.6562 40.7501L65.5586 1L64.461 40.7501C64.3745 43.8844 63.7093 46.8729 62.5684 49.6126C58.7834 48.6422 55.3113 46.2443 53.0667 42.4293L46.1611 30.6916L52.6004 42.6914C57.0531 50.9889 53.1388 60.7003 45.3494 64.2474C43.7251 64.6305 42.0392 64.8547 40.3087 64.9024L0.558594 66L40.3087 67.0976C42.0895 67.1468 43.823 67.3828 45.4909 67.7866C53.0736 71.5755 56.6707 81.2845 52.0659 89.4136L45.3538 101.263L52.5263 89.6864C54.9541 85.768 58.6777 83.4163 62.6639 82.6199C63.7464 85.2959 64.3769 88.204 64.461 91.2499L65.5586 131L66.6562 91.2499C66.7409 88.1769 67.3821 85.2439 68.4825 82.5484C72.7287 83.2878 76.7109 85.7736 79.1926 89.9915L86.0982 101.729L79.6588 89.7293C74.6339 80.3652 80.2651 69.2002 90.0961 67.1273C90.3327 67.1141 90.5702 67.1041 90.8085 67.0976L105.722 66.6857L106.874 66.6764L106.493 66.6645L130.559 66L90.8085 64.9024C89.2418 64.8593 87.7115 64.6714 86.2303 64.3518C79.0179 60.3808 75.6988 50.9415 80.1931 43.0069L86.9055 31.1576L79.7329 42.7341C77.123 46.9468 73.0154 49.3485 68.694 49.9539C67.4644 47.1218 66.7464 44.015 66.6562 40.7501Z" fill="white" stroke="white" stroke-width="4.44444"/>
</svg>
