<svg width="312" height="73" viewBox="0 0 312 73" fill="none" xmlns="http://www.w3.org/2000/svg">
<path d="M30.08 72.96L6.61333 5.97333C5.44 2.77333 3.73333 0.853329 0 0.96V0H21.5467V0.96C18.0267 0.853329 16.1067 2.45333 17.3867 5.97333L39.8933 70.2933L51.0933 38.2933L39.7867 5.97333C38.6133 2.77333 36.9067 0.853329 33.1733 0.96V0H54.72V0.96C51.2 0.853329 49.28 2.45333 50.56 5.97333L73.0667 70.2933L93.3333 12.2667C93.9733 10.4533 94.08 8.85333 93.44 7.04C93.2267 6.29333 92.9067 5.54666 92.6933 4.69333C91.6267 1.6 89.7067 0.853329 86.4 0.96V0C91.52 0 99.2 0 104.213 0V0.96C100.8 0.853329 98.7733 2.56 97.7067 5.65333L74.1333 72.96H63.2533L52.16 41.1733L40.96 72.96H30.08Z" fill="white"/>
<path d="M138.251 0C158.411 0 174.731 16.32 174.731 36.48C174.731 56.64 158.411 72.96 138.251 72.96C118.091 72.96 101.771 56.64 101.771 36.48C101.771 16.32 118.091 0 138.251 0ZM126.517 4.05333C112.864 8.96 107.104 27.4133 113.611 45.44C120.117 63.36 136.331 73.92 149.984 69.0133C163.531 64.1067 169.397 45.5467 162.891 27.6267C156.384 9.70666 140.064 -0.853335 126.517 4.05333Z" fill="white"/>
<path d="M194.981 57.92C194.981 69.2267 197.221 72.2133 201.807 72V72.96H178.021V72C182.607 72.2133 184.847 69.2267 184.847 57.92V15.1467C184.847 3.84 182.607 0.746663 178.021 0.96V0H217.807C226.447 0 236.901 3.2 236.901 13.6533C236.901 24.2133 226.341 28.0533 216.314 31.5733C222.394 32.2133 225.807 35.3067 227.407 40C229.434 45.9733 233.807 62.5067 237.647 66.6667C239.141 68.3733 241.594 69.76 243.727 67.9467L244.474 68.5867C242.981 71.68 239.887 72.96 236.794 72.96C231.567 72.96 228.474 70.1867 226.447 66.3467C222.607 59.3067 220.581 48.96 217.914 41.7067C215.674 35.3067 212.261 32.5333 205.754 35.6267C201.701 37.5467 197.221 41.28 194.981 43.84V57.92ZM194.981 1.92V41.0667C197.754 38.2933 201.167 35.9467 204.901 33.6C211.834 29.0133 226.661 22.8267 226.661 13.2267C226.767 3.73333 217.274 1.92 209.807 1.92H194.981Z" fill="white"/>
<path d="M311.87 68.5867C310.377 71.68 307.283 72.96 304.19 72.96C298.963 72.96 295.87 70.1867 293.843 66.3467C290.003 59.3067 287.977 48.96 285.31 41.7067C281.897 32.1067 275.283 32.32 267.923 39.4667C265.79 41.6 263.87 44.0533 262.377 46.1867V57.92C262.377 69.2267 264.617 72.2133 269.203 72V72.96H245.417V72C250.003 72.2133 252.243 69.2267 252.243 57.92V15.1467C252.243 3.84 250.003 0.746663 245.417 0.96V0H269.203V0.96C264.617 0.746663 262.377 3.84 262.377 15.1467V42.7733C265.043 39.2533 267.603 36.5867 270.59 33.4933L294.057 8.42667C295.337 7.04 296.297 5.76 295.443 3.84C295.337 3.52 295.23 3.2 295.123 3.09333C293.95 0.853329 292.457 0.853329 289.577 0.96V0H307.39V0.96C304.083 0.853329 303.017 2.24 300.99 4.26666C299.283 5.97333 297.577 7.68 295.87 9.38667L275.923 30.72C277.843 29.9733 279.87 29.44 282.11 29.44C289.47 29.44 292.883 34.3467 294.803 40C296.83 45.9733 301.203 62.5067 305.043 66.6667C306.537 68.3733 308.99 69.76 311.123 67.9467L311.87 68.5867Z" fill="white"/>
</svg>
